<?xml version="1.0" encoding="UTF-8" standalone="no"?>
<!-- Created with Inkscape (http://www.inkscape.org/) -->

<svg
   xmlns:dc="http://purl.org/dc/elements/1.1/"
   xmlns:cc="http://creativecommons.org/ns#"
   xmlns:rdf="http://www.w3.org/1999/02/22-rdf-syntax-ns#"
   xmlns:svg="http://www.w3.org/2000/svg"
   xmlns="http://www.w3.org/2000/svg"
   xmlns:sodipodi="http://sodipodi.sourceforge.net/DTD/sodipodi-0.dtd"
   xmlns:inkscape="http://www.inkscape.org/namespaces/inkscape"
   width="210mm"
   height="297mm"
   viewBox="0 0 210 297"
   version="1.1"
   id="svg8"
   inkscape:version="0.92.3 (2405546, 2018-03-11)"
   sodipodi:docname="TomoFlows.svg">
  <defs
     id="defs2" />
  <sodipodi:namedview
     id="base"
     pagecolor="#ffffff"
     bordercolor="#666666"
     borderopacity="1.0"
     inkscape:pageopacity="0.0"
     inkscape:pageshadow="2"
     inkscape:zoom="3.959798"
     inkscape:cx="460.49012"
     inkscape:cy="729.43983"
     inkscape:document-units="mm"
     inkscape:current-layer="layer1"
     showgrid="false"
     inkscape:window-width="3440"
     inkscape:window-height="1377"
     inkscape:window-x="-8"
     inkscape:window-y="-8"
     inkscape:window-maximized="1" />
  <metadata
     id="metadata5">
    <rdf:RDF>
      <cc:Work
         rdf:about="">
        <dc:format>image/svg+xml</dc:format>
        <dc:type
           rdf:resource="http://purl.org/dc/dcmitype/StillImage" />
        <dc:title></dc:title>
      </cc:Work>
    </rdf:RDF>
  </metadata>
  <g
     inkscape:label="Layer 1"
     inkscape:groupmode="layer"
     id="layer1">
    <g
       aria-label="TomoFlows"
       style="font-style:normal;font-variant:normal;font-weight:normal;font-stretch:normal;font-size:4.93888855px;line-height:16;font-family:Arial;-inkscape-font-specification:Arial;letter-spacing:0px;word-spacing:0px;fill:#000000;fill-opacity:1;stroke:#000000;stroke-width:0.17638889;stroke-opacity:1;stroke-miterlimit:4;stroke-dasharray:0.35277778,0.17638889;opacity:1;stroke-dashoffset:0"
       id="text4520"
       inkscape:export-xdpi="150"
       inkscape:export-ydpi="150">
      <path
         d="m 46.786278,96.48448 q -0.02822,-0.04233 0.01411,-0.832555 0.04233,-0.790222 0.04233,-2.173111 0,-0.197556 0.282222,-0.338667 0.282222,-0.155222 0.917222,-0.239889 l 0.465667,-0.05644 0.578555,-0.07056 q 0.183445,0 0.268111,-0.01411 0.239889,-0.07055 0.409223,-0.09878 l 0.705555,-0.04233 1.255889,-0.225778 0.578556,-0.04233 1.086555,-0.127 0.522111,-0.01411 q 0.437445,0 0.606778,0.183444 0.183444,0.169334 0.183444,0.620889 l 0.02822,0.973667 0.02822,1.030111 0.01411,0.296333 0.01411,0.169334 0.02822,0.352777 q 0,0.183445 -0.155222,0.310445 -0.155222,0.127 -0.366889,0.127 -0.07055,0 -0.183444,-0.02822 Q 53.743056,96.131703 53.517278,95.72248 53.2915,95.299147 53.206834,94.466592 l -0.02822,-0.268111 q 0,-0.254 -0.225777,-0.423334 -0.225778,-0.169333 -0.493889,-0.112889 -0.409222,0.08467 -0.620889,0.592667 -0.08467,0.183444 -0.141111,0.564444 -0.05644,0.366889 -0.05644,1.284111 l -0.08467,1.622778 v 0.09878 0.931333 q 0,1.792111 0.04233,2.328331 0.05645,0.53622 0.127,0.57856 l 0.409222,0.0423 0.183445,0.0423 q 0.649111,0.19756 0.818444,0.71967 0.05645,0.22578 0.05645,0.29633 0,0.18345 -0.183445,0.28223 -0.183444,0.0847 -0.733778,0.18344 l -0.846666,0.18345 -0.352778,0.0988 h -0.05644 l -0.08467,0.0141 h -0.366889 l -0.437444,0.0706 q -0.112889,0.0282 -0.423334,-0.0141 -0.296333,-0.0423 -0.465666,-0.127 -0.155223,-0.0847 -0.282223,-0.28222 -0.169333,-0.23989 -0.169333,-0.43745 0,-0.31044 0.536222,-0.47978 l 0.239889,-0.0423 q 0.310445,-0.0423 0.423333,-0.16933 0.112889,-0.127 0.112889,-0.52211 0,-0.46567 -0.127,-1.60867 l -0.01411,-0.07056 v -1.792111 l -0.04233,-1.213556 q 0,-0.931333 -0.01411,-1.185333 -0.01411,-0.254 -0.01411,-0.437445 0,-0.197555 0,-0.282222 0,-0.465666 -0.05645,-0.578555 -0.04233,-0.112889 -0.282222,-0.141111 l -0.395111,0.09878 -0.423333,0.04233 q -0.338667,0.02822 -0.423334,0.112889 -0.08467,0.08467 -0.141111,0.338666 -0.05644,0.254 -0.08467,0.550334 -0.02822,0.282222 -0.02822,0.620888 l -0.112889,0.423334 q -0.127,0.508 -0.423333,0.508 -0.04233,0 -0.254,-0.02822 -0.197555,-0.04233 -0.423333,-0.310445 z"
         style="font-style:normal;font-variant:normal;font-weight:normal;font-stretch:normal;font-size:14.11111069px;font-family:Toledo;-inkscape-font-specification:Toledo;stroke-width:0.17638889;fill:#de8787;stroke:#000000;stroke-opacity:1;stroke-miterlimit:4;stroke-dasharray:0.35277778,0.17638889;stroke-dashoffset:0"
         id="path4522" />
      <path
         d="m 55.229132,100.61904 -0.01411,-0.35278 q 0,-0.705557 0.112889,-1.157113 0.127,-0.465667 0.381,-0.903111 0.522111,-0.903111 1.27,-1.326444 0.409222,-0.239889 0.733778,-0.395112 0.465666,-0.225777 0.874889,-0.225777 l 0.254,-0.02822 0.183444,-0.01411 q 0.211667,0 0.437444,0.01411 0.225778,0.01411 0.437445,0.05644 0.719667,0.155222 1.114778,0.381 0.395111,0.225778 0.762,0.719667 0.423333,0.550333 0.606777,1.340555 0.09878,0.395111 0.09878,0.846667 0,0.733776 -0.338667,1.608666 -0.395111,1.016 -1.058333,1.58044 -0.649111,0.56445 -1.509889,0.66323 l -0.310444,0.0282 h -0.127 l -0.296333,-0.0141 -0.324556,-0.0141 h -0.09878 l -0.08467,-0.0141 -0.338667,-0.0423 q -0.508,-0.0847 -0.733778,-0.15522 -0.211666,-0.0706 -0.606778,-0.29633 -0.268111,-0.15523 -0.508,-0.381 -0.465666,-0.42334 -0.691444,-0.87489 -0.225778,-0.46567 -0.225778,-1.04422 z m 1.806222,1.08655 q 0.254,0.39511 0.522112,0.59267 0.268111,0.19755 0.663222,0.26811 0.09878,0.0282 0.296333,0.0282 0.352778,0 0.804333,-0.16933 0.790223,-0.32456 1.185334,-1.07245 0.409222,-0.74789 0.409222,-1.989663 0,-0.366889 -0.08467,-0.705555 -0.127,-0.564445 -0.324555,-0.874889 -0.197556,-0.310445 -0.536223,-0.493889 -0.437444,-0.239889 -0.804333,-0.239889 -0.522111,0 -1.157111,0.493889 l -0.310444,0.254 q -0.832556,0.832555 -1.016,2.144889 l -0.02822,0.395107 q 0,0.31045 0.183445,0.94545 0.02822,0.11289 0.07056,0.22578 0.05644,0.0988 0.127,0.19755 z"
         style="font-style:normal;font-variant:normal;font-weight:normal;font-stretch:normal;font-size:14.11111069px;font-family:Toledo;-inkscape-font-specification:Toledo;stroke-width:0.17638889;fill:#c8b7b7;stroke:#000000;stroke-opacity:1;stroke-miterlimit:4;stroke-dasharray:0.35277778,0.17638889;stroke-dashoffset:0"
         id="path4524" />
      <path
         d="m 62.71177,97.077147 q -0.04233,-0.197555 0.07055,-0.338667 0.112889,-0.141111 0.522111,-0.310444 0.564445,-0.254 0.945445,-0.254 0.09878,0 0.239889,0.02822 0.578555,0.141111 0.733777,0.635 l 0.04233,0.155222 0.762,-0.183444 q 0.169333,-0.02822 0.239889,-0.04233 0.112888,-0.01411 0.338666,-0.01411 0.338667,0 0.620889,0.04233 0.296333,0.04233 0.409222,0.07055 0.112889,0.01411 0.338667,0.09878 0.225778,0.07056 0.451555,0.183445 0.239889,0.112889 0.338667,0.183444 l 0.324556,0.268111 q 0.141111,-0.04233 0.296333,-0.141111 l 0.127,-0.09878 0.141111,-0.09878 q 0.141111,-0.112889 0.423333,-0.211667 0.366889,-0.141111 0.860778,-0.239889 0.141111,-0.02822 0.310445,-0.04233 0.183444,-0.01411 0.338666,-0.01411 0.804334,0 1.241778,0.282222 0.790222,0.479778 1.058333,1.001889 0.324556,0.606777 0.324556,1.848555 0,0.197552 0,0.296332 0,0.127 0,0.254 -0.02822,0.16933 -0.02822,0.254 -0.04233,0.381 -0.05644,0.52211 -0.01411,0.127 -0.01411,0.31045 0,0.21166 0.05644,0.26811 0.05644,0.0564 0.239888,0.0847 l 0.141112,0.0282 0.08467,0.0141 q 0.112889,0 0.296333,0.254 0.112889,0.16933 0.112889,0.35278 0,0.18344 -0.141111,0.31044 l -0.719666,0.127 -0.04233,0.0141 -0.268111,0.0847 -0.04233,0.0141 -0.268111,0.0423 -0.522111,0.0565 q -0.592667,0 -0.776111,-0.0423 -0.183445,-0.0423 -0.366889,-0.23989 -0.183445,-0.21166 -0.183445,-0.43744 0,-0.23989 0.155222,-0.29633 0.155223,-0.0706 0.423334,-0.0988 0.282222,-0.0282 0.366889,-0.14111 0.08467,-0.11289 0.08467,-0.56445 0,-0.22577 -0.01411,-0.43744 0,-0.21167 0,-0.39511 0,-0.0988 0,-0.15522 l -0.09878,-1.368782 -0.01411,-0.112889 -0.02822,-0.254 -0.04233,-0.197555 -0.05644,-0.197556 q -0.112889,-0.381 -0.268111,-0.522111 -0.141111,-0.141111 -0.437444,-0.141111 -0.07056,0 -0.141111,0 -0.112889,0.02822 -0.254,0.05644 -0.127,0.01411 -0.324556,0.09878 -0.197555,0.08467 -0.508,0.310445 -0.635,0.423333 -0.818444,0.663222 -0.169334,0.239889 -0.169334,0.691444 0,0.127 0,0.437445 0.01411,0.310446 0.01411,0.634996 0,0.31045 0,0.64911 0.01411,0.32456 0,0.36689 -0.01411,0.0423 0.112888,0.11289 0.127,0.0565 0.550334,0.22578 0.09878,0.0423 0.211666,0.31044 0.04233,0.11289 0.04233,0.21167 0,0.31045 -0.366889,0.381 l -0.282222,0.0423 -0.127,0.0141 -0.324556,0.0282 -0.649111,0.0564 q -0.451556,0.0423 -0.677333,0.0423 -0.268111,0 -0.409223,-0.0564 -0.127,-0.0705 -0.282222,-0.28222 -0.155222,-0.21167 -0.155222,-0.39511 0,-0.28222 0.211667,-0.33867 0.225777,-0.0705 0.381,-0.11289 0.169333,-0.0423 0.338666,-0.0423 0.02822,-0.127 0.04233,-0.52211 0.01411,-0.39511 0.01411,-1.707446 0,-0.211667 -0.04233,-0.423334 -0.02822,-0.211666 -0.09878,-0.451555 -0.07056,-0.239889 -0.197556,-0.465667 -0.338667,-0.550333 -0.747889,-0.550333 -0.183444,0 -0.437444,0.08467 -1.001889,0.310444 -1.199445,0.606777 -0.183444,0.282223 -0.183444,1.425222 0,0.141112 0,0.211667 0,0.127002 0,0.183442 0,0.29634 -0.01411,0.57856 -0.01411,0.28222 -0.05645,0.56444 -0.04233,0.26811 -0.04233,0.45156 0,0.49389 0.578556,0.49389 0.155222,0 0.366889,0.36689 0.127,0.21166 0.127,0.35277 0,0.26811 -0.790223,0.381 l -0.705555,0.0847 -0.705556,0.0706 h -0.141111 q -0.338666,0 -0.522111,-0.0564 -0.169333,-0.0564 -0.296333,-0.16933 -0.197556,-0.19756 -0.197556,-0.42334 0,-0.22577 0.197556,-0.33866 0.409222,-0.21167 0.733777,-0.32456 0.04233,-0.0141 0.04233,-0.18344 0,-0.19756 -0.01411,-0.39511 0,-0.21167 0,-0.42334 0,-0.127 0,-0.19755 v -1.171224 l 0.05644,-1.157111 q 0.04233,-0.409222 0.04233,-0.592667 0,-0.324555 -0.324555,-0.395111 l -0.04233,-0.01411 -0.239889,-0.04233 -0.197556,-0.04233 Q 62.754103,97.345258 62.71177,97.077147 Z"
         style="font-style:normal;font-variant:normal;font-weight:normal;font-stretch:normal;font-size:14.11111069px;font-family:Toledo;-inkscape-font-specification:Toledo;stroke-width:0.17638889;fill:#ffb380;stroke:#000000;stroke-opacity:1;stroke-miterlimit:4;stroke-dasharray:0.35277778,0.17638889;stroke-dashoffset:0"
         id="path4526" />
      <path
         d="m 75.651658,100.61904 -0.01411,-0.35278 q 0,-0.705557 0.112888,-1.157113 0.127,-0.465667 0.381,-0.903111 0.522112,-0.903111 1.27,-1.326444 0.409223,-0.239889 0.733778,-0.395112 0.465667,-0.225777 0.874889,-0.225777 l 0.254,-0.02822 0.183444,-0.01411 q 0.211667,0 0.437445,0.01411 0.225778,0.01411 0.437444,0.05644 0.719667,0.155222 1.114778,0.381 0.395111,0.225778 0.762,0.719667 0.423333,0.550333 0.606778,1.340555 0.09878,0.395111 0.09878,0.846667 0,0.733776 -0.338667,1.608666 -0.395111,1.016 -1.058333,1.58044 -0.649111,0.56445 -1.509889,0.66323 l -0.310445,0.0282 h -0.127 l -0.296333,-0.0141 -0.324556,-0.0141 h -0.09878 l -0.08467,-0.0141 -0.338667,-0.0423 q -0.508,-0.0847 -0.733777,-0.15522 -0.211667,-0.0706 -0.606778,-0.29633 -0.268111,-0.15523 -0.508,-0.381 -0.465667,-0.42334 -0.691445,-0.87489 -0.225777,-0.46567 -0.225777,-1.04422 z m 1.806222,1.08655 q 0.254,0.39511 0.522111,0.59267 0.268111,0.19755 0.663222,0.26811 0.09878,0.0282 0.296333,0.0282 0.352778,0 0.804334,-0.16933 0.790222,-0.32456 1.185333,-1.07245 0.409222,-0.74789 0.409222,-1.989663 0,-0.366889 -0.08467,-0.705555 -0.127,-0.564445 -0.324556,-0.874889 -0.197555,-0.310445 -0.536222,-0.493889 -0.437445,-0.239889 -0.804333,-0.239889 -0.522112,0 -1.157112,0.493889 l -0.310444,0.254 q -0.832555,0.832555 -1.016,2.144889 l -0.02822,0.395107 q 0,0.31045 0.183444,0.94545 0.02822,0.11289 0.07056,0.22578 0.05644,0.0988 0.127,0.19755 z"
         style="font-style:normal;font-variant:normal;font-weight:normal;font-stretch:normal;font-size:14.11111069px;font-family:Toledo;-inkscape-font-specification:Toledo;stroke-width:0.17638889;fill:#ffd42a;stroke:#000000;stroke-opacity:1;stroke-miterlimit:4;stroke-dasharray:0.35277778,0.17638889;stroke-dashoffset:0"
         id="path4528" />
      <path
         d="m 83.21896,93.916258 q 0.02822,-0.183444 0.155222,-0.296333 0.141111,-0.127 0.451556,-0.211667 l 0.268111,-0.07055 h 0.05644 l 0.366889,-0.02822 0.818444,-0.155223 0.09878,-0.01411 1.072445,-0.141111 0.169333,-0.02822 0.409222,-0.05645 1.495778,-0.09878 q 0.352778,0 0.762,-0.05644 0.423333,-0.05644 0.733778,-0.09878 h 0.141111 q 0.310444,0 0.437444,0.127 0.141111,0.127 0.211667,0.479778 v 1.143 q 0,1.298222 0.02822,1.439333 -0.08467,0.09878 -0.211667,0.169334 -0.112889,0.05644 -0.225777,0.05644 -0.183445,0 -0.451556,-0.197555 -0.09878,-0.08467 -0.141111,-0.183445 -0.02822,-0.07055 -0.155222,-0.493889 l -0.169334,-0.606777 q -0.02822,-0.225778 -0.07055,-0.451556 -0.02822,-0.225778 -0.197556,-0.225778 -0.112889,0 -0.395111,0.04233 l -0.254,0.04233 -0.663222,0.155222 -0.437444,0.09878 -0.395112,0.09878 q -0.747888,0.112889 -0.917222,0.352778 -0.155222,0.239888 -0.155222,1.326444 v 0.733778 l 0.01411,1.114777 v 0.112889 q 0,0.296334 0.112889,0.296334 0.02822,0 0.169333,-0.02822 l 1.171223,-0.239888 q 1.016,-0.254 1.552222,-0.254 0.409222,0 0.649111,0.141111 0.239889,0.127 0.366889,0.395111 0.127,0.254 0.127,0.381 0,0.155222 -0.310445,0.239889 -0.141111,0.04233 -0.592666,0.112888 l -0.197556,0.02822 -0.508,0.08467 -0.04233,0.01411 -0.465667,0.141112 q -0.09878,0.02822 -0.352778,0.09878 -0.254,0.05644 -0.493889,0.112889 l -0.423333,0.08467 q -0.423333,0.07055 -0.550333,0.169333 -0.127,0.09878 -0.155222,0.366891 v 0.98778 q 0,0.39511 0.01411,0.45155 0.01411,0.0847 0.155222,0.14111 l 0.437444,0.0564 q 0.07056,0.0141 0.127,0.0282 0.127,0.0423 0.239889,0.18344 l 0.07056,0.11289 q 0.169333,0.32456 0.169333,0.508 0,0.22578 -0.282222,0.35278 l -0.211667,0.0847 -0.155222,0.0423 q -0.536222,0.18344 -0.903111,0.254 l -0.05644,0.0141 -0.423334,0.0706 -0.366889,0.0423 q -0.112889,0 -0.239889,0.0141 -0.127,0.0141 -0.169333,0.0141 -0.211667,0 -0.324555,-0.0705 -0.09878,-0.0564 -0.310445,-0.28223 l -0.197555,-0.23988 q -0.07056,-0.0988 -0.07056,-0.21167 0,-0.31045 0.324556,-0.46567 0.324555,-0.15522 0.677333,-0.21166 0.02822,0 0.02822,-0.16934 0,-0.23989 -0.01411,-0.508 0,-0.26811 0,-0.56444 0,-0.18345 0,-0.28222 l -0.02822,-0.42334 -0.05644,-1.072442 -0.02822,-0.437444 q 0,-0.296334 -0.01411,-0.719667 -0.01411,-0.423333 -0.01411,-0.564444 0,-0.112889 0,-0.239889 0.02822,-0.141111 0.02822,-0.211667 0.09878,-0.846667 0.09878,-1.255889 0,-0.381 -0.141111,-0.479777 l -0.366889,-0.112889 -0.225778,-0.08467 q -0.225778,-0.141111 -0.324555,-0.268111 -0.211667,-0.239889 -0.282223,-0.409222 -0.08467,-0.183445 -0.07055,-0.296334 z"
         style="font-style:normal;font-variant:normal;font-weight:normal;font-stretch:normal;font-size:14.11111069px;font-family:Toledo;-inkscape-font-specification:Toledo;stroke-width:0.17638889;fill:#aad400;stroke:#000000;stroke-opacity:1;stroke-miterlimit:4;stroke-dasharray:0.35277778,0.17638889;stroke-dashoffset:0"
         id="path4530" />
      <path
         d="m 90.809635,93.732814 q -0.01411,-0.05645 -0.01411,-0.155222 0,-0.183445 0.141111,-0.296334 0.127,-0.112889 0.550333,-0.296333 l 0.155223,-0.07056 0.451555,-0.127 0.09878,-0.01411 0.338667,-0.02822 q 0.381,0 0.479777,0.04233 0.112889,0.02822 0.310445,0.254 l 0.09878,0.127 q 0.04233,0.07056 0.07055,0.197556 0.04233,0.112889 0.04233,0.338667 0,0.211666 -0.01411,0.776111 -0.01411,0.550333 -0.01411,0.889 0,0.197555 -0.01411,0.747889 -0.01411,0.550333 -0.01411,1.058333 l -0.01411,1.749778 v 1.354667 0.21167 l 0.02822,1.34055 q 0.04233,0.0423 0.141111,0.0847 0.09878,0.0282 0.508,0.15522 0.09878,0.0282 0.197556,0.18344 l 0.04233,0.0564 q 0.127,0.33867 0.127,0.47978 0,0.19755 -0.310444,0.29633 l -0.324556,0.11289 -0.05644,0.0141 -1.072445,0.127 -0.550333,0.0564 q -0.08467,0.0141 -0.225778,0.0141 -0.578555,0 -0.889,-0.53623 -0.08467,-0.16933 -0.08467,-0.29633 0,-0.15522 0.141111,-0.23989 0.155222,-0.0988 0.437444,-0.127 0.296333,-0.0282 0.395111,-0.21167 0.112889,-0.18344 0.112889,-0.97366 0,-0.79022 -0.01411,-1.636891 -0.01411,-0.846666 -0.02822,-1.636889 l -0.01411,-1.707444 0.02822,-0.776111 v -0.05645 q 0.04233,-0.380999 0.04233,-0.564444 0,-0.254 -0.08467,-0.324555 l -0.423334,-0.01411 -0.141111,-0.01411 q -0.550333,-0.112889 -0.635,-0.564444 z"
         style="font-style:normal;font-variant:normal;font-weight:normal;font-stretch:normal;font-size:14.11111069px;font-family:Toledo;-inkscape-font-specification:Toledo;stroke-width:0.17638889;fill:#00d400;stroke:#000000;stroke-opacity:1;stroke-miterlimit:4;stroke-dasharray:0.35277778,0.17638889;stroke-dashoffset:0"
         id="path4532" />
      <path
         d="m 94.91663,100.61904 -0.01411,-0.35278 q 0,-0.705557 0.112889,-1.157113 0.127,-0.465667 0.381,-0.903111 0.522111,-0.903111 1.27,-1.326444 0.409222,-0.239889 0.733778,-0.395112 0.465666,-0.225777 0.874889,-0.225777 l 0.254,-0.02822 0.183444,-0.01411 q 0.211667,0 0.437445,0.01411 0.225777,0.01411 0.437444,0.05644 0.719662,0.155222 1.114782,0.381 0.39511,0.225778 0.762,0.719667 0.42333,0.550333 0.60677,1.340555 0.0988,0.395111 0.0988,0.846667 0,0.733776 -0.33867,1.608666 -0.39511,1.016 -1.05833,1.58044 -0.64911,0.56445 -1.509888,0.66323 l -0.310444,0.0282 h -0.127 l -0.296333,-0.0141 -0.324556,-0.0141 h -0.09878 l -0.08467,-0.0141 -0.338667,-0.0423 q -0.508,-0.0847 -0.733778,-0.15522 -0.211666,-0.0706 -0.606777,-0.29633 -0.268112,-0.15523 -0.508,-0.381 -0.465667,-0.42334 -0.691445,-0.87489 -0.225778,-0.46567 -0.225778,-1.04422 z m 1.806223,1.08655 q 0.254,0.39511 0.522111,0.59267 0.268111,0.19755 0.663222,0.26811 0.09878,0.0282 0.296333,0.0282 0.352778,0 0.804333,-0.16933 0.790223,-0.32456 1.185338,-1.07245 0.40922,-0.74789 0.40922,-1.989663 0,-0.366889 -0.0847,-0.705555 -0.127,-0.564445 -0.32455,-0.874889 -0.19756,-0.310445 -0.536226,-0.493889 -0.437445,-0.239889 -0.804334,-0.239889 -0.522111,0 -1.157111,0.493889 l -0.310444,0.254 q -0.832556,0.832555 -1.016,2.144889 l -0.02822,0.395107 q 0,0.31045 0.183444,0.94545 0.02822,0.11289 0.07056,0.22578 0.05644,0.0988 0.127,0.19755 z"
         style="font-style:normal;font-variant:normal;font-weight:normal;font-stretch:normal;font-size:14.11111069px;font-family:Toledo;-inkscape-font-specification:Toledo;stroke-width:0.17638889;fill:#b7c8b7;stroke:#000000;stroke-opacity:1;stroke-miterlimit:4;stroke-dasharray:0.35277778,0.17638889;stroke-dashoffset:0"
         id="path4534" />
      <path
         d="m 110.66838,101.11292 q 0.14111,-0.0705 0.18344,-0.14111 0.0423,-0.0706 0.16934,-0.381 l 0.0564,-0.15522 0.11289,-0.32455 0.28222,-0.663226 0.46567,-1.072445 q 0.23989,-0.451555 0.23989,-0.550333 0,-0.127 -0.52211,-0.423333 -0.0988,-0.04233 -0.16934,-0.211667 -0.0705,-0.183444 -0.0705,-0.479778 0,-0.324555 0.42333,-0.423333 0.42334,-0.112889 1.76389,-0.112889 0.29633,0 0.46567,0.04233 0.18344,0.04233 0.39511,0.155223 0.21167,0.09878 0.21167,0.451555 0,0.141111 -0.0706,0.282222 -0.0564,0.141111 -0.18344,0.254 l -0.55034,0.254 q -0.59266,0.254 -0.84666,0.931334 -0.42334,1.157111 -0.84667,2.342447 l -0.23989,0.70555 q -0.23989,0.71967 -0.31044,0.94545 -0.0706,0.21166 -0.0847,0.254 l -0.15522,0.55033 q -0.0706,0.254 -0.56445,0.254 -0.22578,0 -0.46566,-0.14111 -0.23989,-0.127 -0.381,-0.32456 -0.127,-0.21166 -0.35278,-0.81844 l -0.14111,-0.42333 q -0.19756,-0.56445 -0.31045,-0.94545 -0.11289,-0.39511 -0.16933,-0.70555 -0.22578,-1.044226 -0.32456,-1.354671 -0.0847,-0.324555 -0.15522,-0.381 h -0.0564 q -0.0282,0.02822 -0.127,0.268111 -0.26811,0.592667 -0.52211,1.171223 l -0.16934,0.437447 -0.67733,1.83444 q -0.15522,0.62089 -0.21167,0.74789 -0.14111,0.36689 -0.49389,0.36689 -0.16933,0 -0.26811,-0.0141 -0.64911,-0.0564 -0.83255,-0.66322 l -0.0564,-0.16934 -0.381,-1.36878 -0.33866,-1.255884 -0.0706,-0.282222 -0.18344,-0.719667 -0.0141,-0.04233 q -0.14112,-0.606778 -0.254,-0.733778 -0.11289,-0.127 -0.762,-0.338667 l -0.254,-0.07055 q -0.0564,-0.01411 -0.0988,-0.07056 -0.0847,-0.09878 -0.18345,-0.324555 l -0.0423,-0.112889 q -0.0706,-0.169334 -0.0706,-0.254 0,-0.183445 0.26812,-0.296334 0.26811,-0.112888 0.97366,-0.225777 l 0.28222,-0.04233 0.46567,-0.05644 0.18345,-0.01411 0.36688,-0.01411 q 0.56445,0 0.83256,0.239889 0.28222,0.225777 0.28222,0.522111 0,0.338666 -0.33866,0.522111 l -0.381,0.169333 q -0.0282,0.141111 0,0.310445 0,0.07055 0.0847,0.366888 0.0847,0.296334 0.22578,0.762 l 0.49389,1.651 q 0.16933,-0.22578 0.33867,-0.45156 0.21166,-0.536217 0.43744,-1.312329 l 0.0282,-0.05644 0.73378,-1.721555 q 0.43744,-1.016 0.81844,-1.016 0.28223,0 0.87489,0.465666 0.0988,0.07056 0.127,0.169334 0.0423,0.09878 0.127,0.451555 l 0.0282,0.08467 0.16934,0.987778 0.18344,0.888999 q 0.23989,0.931329 0.60678,1.820329 z"
         style="font-style:normal;font-variant:normal;font-weight:normal;font-stretch:normal;font-size:14.11111069px;font-family:Toledo;-inkscape-font-specification:Toledo;stroke-width:0.17638889;fill:#80e5ff;stroke:#000000;stroke-opacity:1;stroke-miterlimit:4;stroke-dasharray:0.35277778,0.17638889;stroke-dashoffset:0"
         id="path4536" />
      <path
         d="m 114.57099,102.11481 c 0.0188,-0.12229 0.0752,-0.22107 0.16933,-0.29633 0.0941,-0.0847 0.21167,-0.127 0.35278,-0.127 0.20696,0 0.50329,0.0658 0.889,0.19756 l 0.22578,0.0706 0.29633,0.11289 c 0.0941,0.0282 0.21167,0.0564 0.35278,0.0847 0.14111,0.0282 0.3904,0.0658 0.74789,0.11289 0.35748,0.0376 0.61148,0.0564 0.762,0.0564 0.14111,0 0.31044,-0.0329 0.508,-0.0988 0.19755,-0.0659 0.254,-0.16464 0.16933,-0.29633 -0.0377,-0.0659 -0.10352,-0.13172 -0.19756,-0.19756 -0.0941,-0.0753 -0.28692,-0.20696 -0.57855,-0.39511 -0.1223,-0.0847 -0.31986,-0.18344 -0.59267,-0.29633 -0.34807,-0.15052 -0.81844,-0.33396 -1.41111,-0.55033 -0.15993,-0.0659 -0.29163,-0.13642 -0.39511,-0.21167 -0.18815,-0.13171 -0.34337,-0.26811 -0.46567,-0.409223 -0.11289,-0.150519 -0.19755,-0.305741 -0.254,-0.465667 -0.047,-0.169333 -0.0752,-0.268111 -0.0847,-0.296333 -0.0188,-0.08467 -0.0282,-0.16463 -0.0282,-0.239889 0,-0.159926 0.0894,-0.432741 0.26811,-0.818444 0.0941,-0.197556 0.2446,-0.395112 0.45156,-0.592667 0.24459,-0.244593 0.58326,-0.508 1.016,-0.790222 0.18815,-0.122297 0.34807,-0.216371 0.47978,-0.282222 0.14111,-0.07526 0.2634,-0.131704 0.36689,-0.169334 0.254,-0.07526 0.45155,-0.112889 0.59266,-0.112889 0.15052,0 0.64876,-0.108009 0.89335,-0.02334 0.14029,0.04111 0.10745,0.05579 0.73149,0.245076 0.50005,0.406824 0.48771,0.420255 0.74525,0.806392 0,0 0.27035,0.382974 0.44841,0.685348 l 0.50113,0.334085 c 0.39435,0.09286 1.30725,0.151992 1.30725,0.151992 l -0.30463,-1.025562 c 0.45008,0.239684 1.14096,0.711072 1.14096,0.711072 l 1.06229,0.678843 -1.07283,0.755418 c 0,0 -0.97716,0.963706 -1.01319,0.904626 -0.0847,0.0941 0.13538,-1.028195 0.13538,-1.028195 -0.10051,0 -0.84085,-0.0064 -1.3467,-0.07267 -0.48838,-0.06403 -0.9606,-0.286451 -1.02067,-0.388113 -0.55088,-0.606186 -0.49252,-0.565144 -0.64344,-0.956663 0,0 0,0 -0.43225,-0.477185 0,0 -0.64339,-0.155528 -0.7845,-0.09908 -0.49859,0.206963 -0.6201,0.359592 -0.79884,0.491296 l -0.43745,0.310444 -0.0282,0.02822 -0.35278,0.324556 -0.28222,0.282222 c -0.047,0.06585 -0.0705,0.127002 -0.0705,0.183445 0,0.169333 0.14581,0.315148 0.43744,0.437444 l 0.87489,0.395111 0.254,0.09878 0.11289,0.05644 0.11289,0.05644 0.22577,0.141116 c 0.0659,0.0282 0.14113,0.0611 0.22578,0.0988 0.0941,0.0282 0.14581,0.047 0.15522,0.0564 0.23519,0.0659 0.47037,0.17405 0.70556,0.32455 0.81845,0.47037 1.22767,0.91252 1.22767,1.32645 0,0.24459 -0.15052,0.52681 -0.45156,0.84666 l -0.21167,0.18345 c -0.27281,0.22578 -0.53622,0.3857 -0.79022,0.47978 -0.254,0.0941 -0.60678,0.14111 -1.05833,0.14111 -0.29163,0 -0.55034,-0.0141 -0.77611,-0.0423 -0.22578,-0.0188 -0.52211,-0.0752 -0.889,-0.16933 l -0.254,-0.0705 -0.15522,-0.0423 -0.15523,-0.0564 c -0.55503,-0.21638 -0.92192,-0.3669 -1.10066,-0.45156 -0.17874,-0.0847 -0.29633,-0.16463 -0.35278,-0.23989 -0.11289,-0.15993 -0.16463,-0.28693 -0.15522,-0.381 z"
         style="font-style:normal;font-variant:normal;font-weight:normal;font-stretch:normal;font-size:14.11111069px;font-family:Toledo;-inkscape-font-specification:Toledo;stroke-width:0.17638889;fill:#8080ff;stroke:#000000;stroke-opacity:1;stroke-miterlimit:4;stroke-dasharray:0.35277778,0.17638889;stroke-dashoffset:0"
         id="path4538"
         inkscape:connector-curvature="0"
         sodipodi:nodetypes="ccscccccsccccccccccscccccscccccccccccssccsccccccscccccccccsccsscccccsccc" />
    </g>
  </g>
</svg>
